# xmcd
#
# Track frame offsets:
# 150
# 11256
# 28595
# 43339
# 53353
# 67328
# 81850
# 91360
# 104825
# 121698
#
# Disc length: 1798 seconds
#
#
# Revision: 0
# Processed by: cddbd v1.5.1PL0 Copyright (c) Steve Scherf et al.
# Submitted via: FreeRIP 2.942 
#
DISCID=7e07040a
DTITLE=Amaroso e Amaraí - Gente de Rádio
DYEAR=1900
DGENRE=Sertanejo
TTITLE0=Dilema de amor
TTITLE1=Quem eu amo vive longe
TTITLE2=Lamento de caboclo
TTITLE3=Saudade
TTITLE4=Os olhos da alma
TTITLE5=Mulher de calendário
TTITLE6=Gente de rádio
TTITLE7=Homem triste
TTITLE8=Operário vida e viola
TTITLE9=Travessa da amizade
EXTD=
EXTT0=
EXTT1=
EXTT2=
EXTT3=
EXTT4=
EXTT5=
EXTT6=
EXTT7=
EXTT8=
EXTT9=
PLAYORDER=
